# xmcd CD database file
#
# Track frame offsets:
#	150
#	24774
#	41013
#	60518
#	85127
#	101367
#
# Disc length: 1610 seconds
#
# Revision: 2
# Processed by: cddbd v1.5.2PL0 Copyright (c) Steve Scherf et al.
# Submitted via: CDex 1.70beta2
#
DISCID=39064806
DTITLE=AKB48 - 鈴懸の木の道で「君の微笑みを夢に見る」と言ってしまったら僕たちの関係はどう変わってしまうのか、僕なりに何日か考えた上でのやや気恥ずかしい結論のようなもの
DYEAR=1900
DGENRE=JPop
TTITLE0=鈴懸の木の道で「君の微笑みを夢に見る」と言ってしまったら僕たちの関係はどう変わってしまうのか、僕なりに何日か考えた上でのやや気恥ずかしい結論のようなもの
TTITLE1=Mosh and Dive
TTITLE2=選んでレインボー(てんとうむChu！)
TTITLE3=鈴懸の木の道で「君の微笑みを夢に見る」と言ってしまったら僕たちの関係はどう変わってしまうのか、僕なりに何日か考えた上でのやや気恥ずかしい結論のようなもの -off vocal ver.-
TTITLE4=Mosh and Dive -off vocal ver.-
TTITLE5=選んでレインボー(てんとうむChu！) -off vocal ver.-
EXTD=
EXTT0=
EXTT1=
EXTT2=
EXTT3=
EXTT4=
EXTT5=
PLAYORDER=
